<svg width="100" height="100" viewBox="0 0 100 100" fill="none" xmlns="http://www.w3.org/2000/svg">
<path d="M4.1666 4.1666H45.8332V22.9166C45.8332 24.0625 46.7707 25 47.9166 25H66.6666V39.5834H70.8332V22.9168C70.8332 22.7084 70.7707 22.5002 70.7082 22.2918C70.6873 22.2293 70.6873 22.1877 70.6666 22.1252C70.5625 21.8543 70.3957 21.6252 70.1875 21.4168L49.3959 0.604102C49 0.229102 48.4791 0 47.9166 0H2.0834C0.9375 0 0 0.9375 0 2.0834V89.5834C0 90.7293 0.9375 91.6668 2.0834 91.6668H43.75V87.5H4.1666V4.1666ZM50 7.125L63.7084 20.8334H50V7.125Z" fill="#475569"/>
<path d="M72.9166 45.8334C57.9582 45.8334 45.8332 57.9584 45.8332 72.9168C45.8332 87.8752 57.9584 100 72.9166 100C87.8748 100 100 87.875 100 72.9166C99.9791 57.9584 87.875 45.8541 72.9166 45.8334ZM72.9166 95.8334C60.25 95.8334 50 85.5834 50 72.9166C50 60.2498 60.25 50 72.9166 50C85.5832 50 95.8332 60.25 95.8332 72.9166C95.8125 85.5625 85.5625 95.8125 72.9166 95.8334Z" fill="#475569"/>
<path d="M80.625 73.6666L75 79.2916V61.6041C75 60.5625 74.25 59.625 73.2291 59.4791C71.9375 59.2916 70.8332 60.2916 70.8332 61.5416V79.25L65.2498 73.6666C64.4373 72.8541 63.1039 72.8541 62.2707 73.6666C61.4582 74.4791 61.4582 75.8125 62.2707 76.6457L71.4373 85.8123C72.2498 86.6248 73.5832 86.6248 74.4164 85.8123L83.583 76.6457C84.3955 75.8123 84.3746 74.4791 83.5414 73.6666C82.7291 72.875 81.4375 72.875 80.625 73.6666Z" fill="#475569"/>
</svg>
