<svg width="100" height="100" viewBox="0 0 100 100" fill="none" xmlns="http://www.w3.org/2000/svg">
<g filter="url(#filter0_d_73_156)">
<rect x="26" y="22" width="48" height="48" rx="24" fill="white" shape-rendering="crispEdges"/>
<path d="M49.4064 39.7141L44.8172 44.3034H59.2478C60.0976 44.3034 60.8625 44.9153 60.9815 45.7482C61.1345 46.8019 60.3186 47.7029 59.2988 47.7029H44.8511L49.4064 52.2582C50.0693 52.9211 50.0693 54.009 49.4064 54.6887C48.7435 55.3516 47.6557 55.3516 46.9759 54.6887L39.4972 47.21C38.8343 46.5472 38.8343 45.4593 39.4972 44.7795L46.9759 37.3008C47.6558 36.6379 48.7435 36.655 49.4064 37.3347C50.0523 37.9975 50.0523 39.0512 49.4064 39.7141Z" fill="#0284C7"/>
</g>
<defs>
<filter id="filter0_d_73_156" x="0" y="0" width="100" height="100" filterUnits="userSpaceOnUse" color-interpolation-filters="sRGB">
<feFlood flood-opacity="0" result="BackgroundImageFix"/>
<feColorMatrix in="SourceAlpha" type="matrix" values="0 0 0 0 0 0 0 0 0 0 0 0 0 0 0 0 0 0 127 0" result="hardAlpha"/>
<feMorphology radius="14" operator="dilate" in="SourceAlpha" result="effect1_dropShadow_73_156"/>
<feOffset dy="4"/>
<feGaussianBlur stdDeviation="6"/>
<feComposite in2="hardAlpha" operator="out"/>
<feColorMatrix type="matrix" values="0 0 0 0 0.2 0 0 0 0 0.254902 0 0 0 0 0.333333 0 0 0 0.02 0"/>
<feBlend mode="normal" in2="BackgroundImageFix" result="effect1_dropShadow_73_156"/>
<feBlend mode="normal" in="SourceGraphic" in2="effect1_dropShadow_73_156" result="shape"/>
</filter>
</defs>
</svg>
